<?xml version="1.0" ?>
<!DOCTYPE svg  PUBLIC '-//W3C//DTD SVG 1.1//EN'  'http://www.w3.org/Graphics/SVG/1.1/DTD/svg11.dtd'>
<!-- Uploaded to: SVG Repo, www.svgrepo.com, Generator: SVG Repo Mixer Tools -->
<svg fill="#000000" width="800px" height="800px" viewBox="0 0 32 32" style="fill-rule:evenodd;clip-rule:evenodd;stroke-linejoin:round;stroke-miterlimit:2;" version="1.1" xml:space="preserve" xmlns="http://www.w3.org/2000/svg" xmlns:serif="http://www.serif.com/" xmlns:xlink="http://www.w3.org/1999/xlink">
<g transform="matrix(1,0,0,1,-336,-288)">
<g transform="matrix(1,0,0,0.736842,147,184.789)">
<path d="M216,155L202,155L202,171.286C202,172.785 202.895,174 204,174L214,174C215.105,174 216,172.785 216,171.286L216,155Z" style="fill:rgb(144,224,239);"/>
</g>
<g transform="matrix(1.28571,0,0,0.210526,87.3024,262.368)">
<path d="M216,159.75C216,158.49 215.918,157.282 215.772,156.391C215.626,155.5 215.428,155 215.222,155C212.772,155 205.228,155 202.778,155C202.572,155 202.374,155.5 202.228,156.391C202.082,157.282 202,158.49 202,159.75C202,162.651 202,166.349 202,169.25C202,170.51 202.082,171.718 202.228,172.609C202.374,173.5 202.572,174 202.778,174C205.228,174 212.772,174 215.222,174C215.428,174 215.626,173.5 215.772,172.609C215.918,171.718 216,170.51 216,169.25C216,166.349 216,162.651 216,159.75Z" style="fill:rgb(144,224,239);"/>
</g>
<g transform="matrix(0.337543,-0.539958,-0.705915,-0.37641,393.21,461.803)">
<path d="M209.5,147C210.88,147 212,148.12 212,149.5C212,150.88 210.88,152 209.5,152C208.12,152 204.758,151.112 204.758,149.732C204.758,148.353 208.12,147 209.5,147Z" style="fill:rgb(144,224,239);"/>
</g>
<g transform="matrix(-0.337543,-0.539958,0.705915,-0.37641,318.208,461.803)">
<path d="M209.5,147C210.88,147 212,148.12 212,149.5C212,150.88 210.88,152 209.5,152C208.12,152 204.758,151.112 204.758,149.732C204.758,148.353 208.12,147 209.5,147Z" style="fill:rgb(144,224,239);"/>
</g>
<g transform="matrix(1.5,0,0,1.2,118.5,109.2)">
<path d="M151,165.667C151,164.746 150.403,164 149.667,164C149.238,164 148.762,164 148.333,164C147.597,164 147,164.746 147,165.667C147,167.516 147,170.484 147,172.333C147,173.254 147.597,174 148.333,174C148.762,174 149.238,174 149.667,174C150.403,174 151,173.254 151,172.333C151,170.484 151,167.516 151,165.667Z" style="fill:rgb(144,224,239);"/>
</g>
<g transform="matrix(1,0,0,1,192,144)">
<path d="M153,165C153,164.47 153.211,163.961 153.586,163.586C153.961,163.211 154.47,163 155,163L160,163C160.006,163 162,163.003 162,165C162,167 160,167 160,167L164.172,167C164.702,167 165.211,166.789 165.586,166.414C166.697,165.303 169,163 169,163C171.373,160.627 175.213,163.272 171.243,167.243C171.243,167.243 167.968,170.838 166.595,172.347C166.216,172.763 165.679,173 165.116,173C163.053,173 157.874,173 155,173C154.47,173 153.961,172.789 153.586,172.414C153.211,172.039 153,171.53 153,171C153,169.257 153,166.743 153,165Z" style="fill:rgb(144,224,239);"/>
</g>
<path d="M345.529,306.385C345.974,306.135 346.48,306 347,306L348,306L348,300C347.476,299.996 346.974,299.785 346.602,299.414C346.227,299.039 346.017,298.53 346.017,298L346.017,296C346.017,295.47 346.227,294.961 346.602,294.586C346.978,294.211 347.486,294 348.017,294L350.497,294C350.466,293.959 350.439,293.919 350.414,293.88C349.674,292.696 350.165,291.002 351.713,290.177C353.188,289.39 354.934,289.809 355.64,290.938C355.663,290.975 355.686,291.014 355.709,291.057C355.732,291.014 355.756,290.975 355.779,290.938C356.484,289.809 358.23,289.39 359.706,290.177C361.254,291.002 361.744,292.696 361.004,293.88C360.98,293.919 360.952,293.959 360.922,294L364.017,294C364.547,294 365.056,294.211 365.431,294.586C365.806,294.961 366.017,295.47 366.017,296L366.017,298C366.017,298.53 365.806,299.039 365.431,299.414C365.056,299.789 364.547,300 364.017,300L364,300L364,305.259C364.834,305.544 365.507,306.175 365.798,307.027C366.193,308.182 365.934,309.956 363.967,311.932C363.967,311.932 359.334,317.02 359.334,317.02C358.766,317.644 357.961,318 357.116,318C355.053,318 349.874,318 347,318C346.48,318 345.974,317.865 345.529,317.615C344.996,318.448 344.062,319 343,319L341,319C339.343,319 338,317.657 338,316L338,308C338,306.343 339.343,305 341,305L343,305C344.062,305 344.996,305.552 345.529,306.385ZM344,308L344,316C344,316.552 343.552,317 343,317C343,317 341,317 341,317C340.448,317 340,316.552 340,316C340,316 340,308 340,308C340,307.448 340.448,307 341,307C341,307 343,307 343,307C343.552,307 344,307.448 344,308ZM346,309L346,315C346,315.265 346.105,315.52 346.293,315.707C346.48,315.895 346.735,316 347,316L357.116,316C357.398,316 357.666,315.881 357.856,315.673C359.229,314.165 362.503,310.569 362.519,310.552L362.536,310.536C363.732,309.339 364.145,308.373 363.906,307.674C363.635,306.883 362.517,306.898 361.707,307.707C361.707,307.707 359.404,310.01 358.293,311.121C357.73,311.684 356.967,312 356.172,312L349,312C348.448,312 348,311.552 348,311C348,310.448 348.448,310 349,310L352,310C352,310 353,310 353,309C353,308.001 352.002,308 352,308L347,308C346.735,308 346.48,308.105 346.293,308.293C346.105,308.48 346,308.735 346,309ZM355,300L355,310L356.172,310C356.437,310 356.691,309.895 356.879,309.707L357,309.586L357,300L355,300ZM359,307.586L360.293,306.293C360.829,305.757 361.415,305.415 362,305.239L362,300L359,300L359,307.586ZM350,306L352.001,306C352.004,306 352.452,306.001 353,306.174L353,300L350,300L350,306ZM353,296L353,298L348.017,298C348.017,298 348.017,296 348.017,296L353,296ZM357,298L355,298L355,296L357,296L357,298ZM359,296L364.017,296C364.017,296 364.017,298 364.017,298L359,298L359,296ZM357.255,294L357.132,294C357.114,293.927 357.074,293.76 357.071,293.646C357.057,293.047 357.266,292.332 357.475,291.998C357.559,291.862 357.723,291.804 357.895,291.777C358.17,291.734 358.481,291.79 358.765,291.941C359.023,292.079 359.219,292.273 359.308,292.493C359.352,292.603 359.37,292.721 359.308,292.82C359.1,293.153 358.43,293.6 357.791,293.851C357.632,293.913 357.473,293.962 357.322,293.986C357.299,293.99 357.277,293.995 357.255,294ZM354.286,294L354.163,294C354.142,293.995 354.119,293.99 354.096,293.986C353.945,293.962 353.787,293.913 353.628,293.851C352.989,293.6 352.319,293.153 352.11,292.82C352.049,292.721 352.067,292.603 352.111,292.493C352.199,292.273 352.395,292.079 352.654,291.941C352.937,291.79 353.248,291.734 353.523,291.777C353.695,291.804 353.859,291.862 353.944,291.998C354.153,292.332 354.362,293.047 354.347,293.646C354.344,293.76 354.305,293.927 354.286,294Z" style="fill:rgb(25,144,167);"/>
</g>
</svg>