<?xml version="1.0" ?><!DOCTYPE svg  PUBLIC '-//W3C//DTD SVG 1.1//EN'  'http://www.w3.org/Graphics/SVG/1.1/DTD/svg11.dtd'><svg width="64px" height="64px" viewBox="0 0 64 64" id="Layer_1" style="enable-background:new 0 0 64 63.992;" version="1.1" xml:space="preserve" xmlns="http://www.w3.org/2000/svg" xmlns:xlink="http://www.w3.org/1999/xlink"><g id="Ear_9_"><g><rect height="11.998" style="fill:#CCCCCC;" width="8" x="46" y="25.997"/></g></g><g id="Ear_7_"><g><circle cx="50" cy="13.998" r="13.998" style="fill:#999999;"/></g></g><g id="Ear_4_"><g><circle cx="50" cy="13.999" r="9.999" style="fill:#CCCCCC;"/></g></g><g id="Ear_5_"><g><circle cx="50" cy="13.999" r="6" style="fill:#999999;"/></g></g><g id="Cable_Protection_2_"><g><path d="M46,37.995v11.999v1.999v0.001c0,1.104,0.896,1.999,2,1.999h4    c1.104,0,2-0.896,2-1.999v-0.001v-1.999V37.995H46z" style="fill-rule:evenodd;clip-rule:evenodd;fill:#999999;"/></g></g><g id="Rectangle_2"><g><rect height="9.999" style="fill:#CCCCCC;" width="4" x="48" y="53.993"/></g></g><g id="Cable_Protection_3_"><g><path d="M16,37.995v11.999v1.999v0.001c0,1.104,0.895,1.999,2,1.999h4    c1.104,0,2-0.896,2-1.999v-0.001v-1.999V37.995H16z" style="fill-rule:evenodd;clip-rule:evenodd;fill:#999999;"/></g></g><g id="Cable_8_"><g><rect height="9.999" style="fill:#CCCCCC;" width="4" x="18" y="53.993"/></g></g><g id="Ear_6_"><g><path d="M0,5.999v15.998c0,3.313,2.686,5.999,6,5.999V0C2.686,0,0,2.687,0,5.999z" style="fill:#999999;"/></g></g><g id="Case_2_"><g><path d="M16,25.997v11.998h8V25.997H16z M24,25.997    C24,15.729,14,0,6,0v27.996c4.023,0,5.277-5.999,8-5.999c1.966,0,2,4,2,4S24,25.973,24,25.997z" style="fill-rule:evenodd;clip-rule:evenodd;fill:#CCCCCC;"/></g></g><g/><g/><g/><g/><g/><g/><g/><g/><g/><g/><g/><g/><g/><g/><g/></svg>